PathFileType	4	(X/Y/Z)	C:/Users/beibeiliu/ov580/test_trc/User2\sequence.37_training_dense_left.trc
DataRate	CameraRate	NumFrames	NumMarkers	Units	OrigDataRate	OrigDataStartFrame	OrigNumFrames
120	120	19	19	mm	120	63	500
Frame#	Time	ThumbCMC			ThumbMCP			ThumbIP			ThumbTip			IndexMCP			IndexPIP			IndexTip			MiddleMCP			MiddlePIP			MiddleTip			RingMCP			RingPIP			RingTip			PinkyMCP			PinkyPIP			PinkyTip			BackHand1			BackHand2			BackHand3	
		X0	Y0	Z0	X1	Y1	Z1	X2	Y2	Z2	X3	Y3	Z3	X4	Y4	Z4	X5	Y5	Z5	X6	Y6	Z6	X7	Y7	Z7	X8	Y8	Z8	X9	Y9	Z9	X10	Y10	Z10	X11	Y11	Z11	X12	Y12	Z12	X13	Y13	Z13	X14	Y14	Z14	X15	Y15	Z15	X16	Y16	Z16	X17	Y17	Z17	X18	Y18	Z18	
62	0.516667	-198.611	-20.4609	79.5016	-171.821	-8.58194	52.1638	-145.52	-8.24511	33.672	-120.413	-27.7005	26.6947	-173.759	-70.0605	12.1651	-152.069	-65.3135	-10.0266	-124.02	-40.503	-7.03527	-158.474	-85.528	16.565	-129.27	-70.356	-4.50171	-110.691	-41.3859	12.4789	-141.546	-97.3901	33.1479	-121.511	-87.2949	11.3862	-104.279	-53.4676	19.0368	-132.228	-98.953	59.0341	-109.941	-96.7259	33.3982	-92.6898	-72.2502	21.8919	-175.157	-88.1874	86.7283	-189.055	-81.6029	111.997	-204.312	-65.9036	81.0633	
63	0.525	-198.588	-22.0755	78.8393	-175.715	-7.76179	52.5014	-148.769	-8.22418	30.8882	-123.84	-25.0343	24.8123	-175.18	-69.7646	12.6304	-150.597	-64.6376	-10.8128	-125.815	-40.4892	-9.36996	-157.589	-87.7252	15.7138	-131.711	-74.9936	-4.54677	-113.809	-41.3115	8.60211	-145.026	-96.7745	35.1684	-121.625	-87.3655	11.0327	-104.085	-57.6907	16.3583	-135.211	-97.2469	59.4406	-110.539	-97.9036	34.4384	-96.5135	-72.1249	20.4188	-175.338	-87.5041	84.6823	-188.07	-85.9418	115.773	-205.633	-67.3305	78.5273	
64	0.533333	-199.5	-25.2995	77.7672	-180.493	-5.7036	53.3481	-151.876	-6.0314	24.2255	-128.7	-20.7439	21.8954	-174.456	-71.7505	10.8553	-150.23	-65.018	-11.859	-129.407	-42.6502	-11.3712	-161.064	-87.5179	14.5239	-129.85	-74.6954	-4.92072	-111.92	-42.8426	8.98117	-143.516	-99.9738	33.0081	-121.685	-90.2532	11.24	-105.693	-57.1916	14.1187	-135.058	-97.4065	56.555	-111.671	-97.3878	32.2253	-92.8668	-76.4807	21.9995	-174.6	-89.7656	84.807	-188.509	-83.8822	113.227	-204.805	-65.7698	79.2469	
65	0.541667	-202.381	-24.8075	77.1919	-183.648	-9.34464	47.9311	-160.729	-3.88977	26.8213	-135.55	-17.9376	15.651	-179.521	-71.1655	14.0379	-152.247	-67.2968	-10.2449	-127.167	-42.6018	-9.75786	-162.216	-87.8137	14.2193	-130.318	-77.1242	-3.92674	-111.066	-48.0006	7.75588	-147.025	-97.0988	30.2879	-122.455	-88.664	10.422	-104.862	-59.3435	13.9498	-134.932	-99.0977	54.075	-110.728	-98.4697	33.9278	-98.0976	-74.5709	18.4325	-175.972	-88.5684	86.4037	-188.704	-87.8502	111.802	-205.874	-69.1165	81.2036	
66	0.55	-206.03	-23.5621	75.7683	-191.624	-6.87347	47.9693	-167.01	-4.88441	21.2459	-141.485	-16.0976	8.59572	-181.604	-70.9846	13.514	-155.858	-68.0271	-11.1804	-131.029	-42.6156	-9.63338	-162.038	-89.7149	14.6458	-137.478	-78.373	-7.24002	-114.209	-44.8533	7.05876	-147.306	-98.2098	30.9431	-122.452	-91.811	10.9136	-108.405	-61.375	10.7989	-137.021	-99.0177	58.8451	-115.851	-97.3823	32.7163	-96.0888	-76.6415	21.6739	-178.93	-88.9353	85.6404	-189.359	-85.026	111.671	-208.744	-68.3657	80.7908	
67	0.558333	-209.605	-23.7422	74.1468	-194.758	-8.13885	47.5336	-172.975	-4.63445	16.8567	-146.697	-19.2146	8.11961	-180.381	-72.8811	13.923	-157.895	-68.3128	-10.5337	-133.813	-43.0562	-9.43814	-163.475	-89.0464	16.191	-135.469	-77.579	-6.1561	-115.416	-47.3302	6.07473	-149.364	-98.3741	31.2303	-124.358	-88.8325	9.46976	-110.268	-58.322	11.3719	-136.519	-100.687	54.4773	-114.608	-97.1467	30.3469	-99.9382	-71.5265	19.2628	-179.852	-90.4045	84.9562	-191.38	-83.4228	109.773	-209.418	-67.6959	79.4663	
68	0.566667	-211.854	-23.4733	74.8248	-198.357	-8.58031	45.5842	-178.198	-7.55275	19.327	-151.738	-18.0828	3.94691	-181.61	-72.7214	9.91531	-154.98	-65.8754	-11.9178	-134.079	-42.3047	-3.96234	-165.59	-90.3884	15.236	-138.128	-79.7727	-5.40767	-120.173	-46.1194	3.89223	-153.058	-97.2987	31.4607	-127.834	-90.133	9.30911	-110.143	-61.6195	10.9703	-137.958	-101.293	56.7645	-118.917	-97.2886	29.0207	-105.558	-73.6457	17.0335	-179.86	-89.877	81.3055	-192.841	-86.1514	111.663	-208.865	-68.3073	78.8482	
69	0.575	-212.912	-26.6082	76.9821	-200.991	-13.9449	43.8975	-182.285	-11.4896	14.8538	-157.138	-20.7093	2.10006	-185.806	-71.2023	7.39404	-157.525	-63.6616	-10.9616	-138.491	-38.8075	-1.33688	-165.55	-90.1226	12.5863	-139.669	-78.7522	-6.14919	-122.674	-42.4411	6.04476	-151.427	-99.0613	31.934	-129.307	-92.8589	10.1151	-115.214	-59.7714	8.60415	-140.29	-101.566	55.5677	-121.81	-97.8058	28.96	-105.653	-77.6555	17.1642	-182.417	-90.702	85.512	-194.86	-84.2244	115.204	-211.864	-68.5053	79.7375	
70	0.583333	-215.894	-24.8572	74.6926	-201.706	-16.0147	46.5922	-183.45	-12.7886	14.4412	-158.914	-25.165	1.74827	-186.499	-71.4388	7.3069	-163.415	-64.7098	-13.0052	-138.579	-36.0874	0.559012	-170.211	-86.6981	12.9714	-141.057	-76.8358	-6.4953	-126.144	-41.9388	3.35476	-153.205	-99.2239	32.1587	-130.221	-87.8646	6.99789	-114.019	-55.2662	10.0332	-140.365	-101.849	54.6639	-119.667	-100.277	32.2678	-106.744	-73.5502	15.5608	-181.536	-91.3711	82.8182	-198.529	-81.0485	111.049	-213.559	-67.6006	79.5315	
71	0.591667	-215.46	-26.6669	71.855	-204.474	-12.3984	46.0932	-183.612	-14.559	16.2434	-158.623	-24.8138	1.29913	-182.306	-73.1093	10.4371	-158.42	-63.2682	-10.3733	-139.02	-35.2532	1.38186	-170.037	-88.0491	13.8302	-142.807	-74.2302	-7.88302	-125.151	-38.851	6.67342	-153.487	-97.5235	28.356	-132.459	-91.5459	9.31571	-113.754	-55.4659	10.2296	-142.311	-98.6542	58.6568	-121.275	-98.3124	30.6533	-105.755	-74.6415	14.5353	-181.642	-90.5271	80.9137	-197.648	-83.6825	110.33	-215.751	-66.6918	76.076	
72	0.6	-217.269	-24.1338	75.6574	-204.056	-13.361	45.7937	-185.697	-11.7604	13.8217	-159.749	-25.9598	4.04579	-183.042	-73.2096	9.82826	-158.426	-65.8971	-9.69634	-140.46	-37.0949	-1.95093	-166.332	-89.2454	12.8689	-137.525	-74.0554	-5.3409	-123.456	-41.6923	7.96855	-152.561	-98.6005	30.25	-130.576	-89.3967	7.31621	-115.674	-55.2144	8.25949	-144.294	-97.0738	56.1074	-120.875	-99.5392	31.9918	-102.041	-77.6466	16.8456	-182.43	-91.3508	84.3542	-199.81	-82.6807	112.681	-214.222	-67.9596	79.5297	
73	0.608333	-216.656	-25.8665	76.8519	-202.774	-17.5476	45.4352	-183	-15.0093	13.3621	-159.738	-22.4634	1.68992	-185.493	-71.5825	10.5106	-160.159	-63.4022	-12.4123	-138.884	-35.9204	1.00887	-169.27	-86.8617	13.3732	-140.819	-76.4675	-5.90409	-123.163	-39.7542	9.12034	-155.261	-97.1886	30.9853	-130.81	-87.4562	7.1654	-114.419	-55.3713	9.69334	-141.968	-99.4468	53.6183	-117.914	-99.2824	32.1233	-105.377	-73.3209	16.5196	-183.221	-89.0172	80.2305	-194.222	-85.8885	110.381	-212.862	-68.8763	77.8053	
74	0.616667	-214.74	-28.0394	76.0879	-204.784	-14.1702	43.7021	-183.162	-14.4947	12.7862	-160.829	-21.608	-0.371769	-184.12	-72.0429	10.3215	-158.999	-65.2443	-10.385	-141.523	-34.9679	-1.98064	-168.269	-88.3643	11.2219	-140.356	-75.8323	-6.43968	-125.013	-41.7097	3.69511	-156.063	-96.3161	31.0585	-127.875	-89.1447	7.38587	-115.61	-60.3825	8.78429	-140.406	-99.6677	56.3375	-121.728	-98.7091	32.946	-106.018	-74.8904	17.4728	-180.101	-88.8285	85.2579	-199.139	-83.4351	110.415	-214.188	-67.7532	78.1424	
75	0.625	-216.965	-26.2598	73.2625	-203.174	-14.8202	44.1853	-186.435	-11.4199	14.069	-161.228	-19.7135	-0.00914659	-183.418	-74.8599	11.5769	-157.26	-64.9501	-9.56407	-143.044	-35.0853	-2.63517	-169.945	-89.3566	12.9865	-140.571	-78.3278	-7.00916	-124.593	-41.4998	5.96565	-152.111	-98.7827	31.1841	-131.936	-90.0058	6.96374	-113.449	-55.8952	10.2339	-142.205	-96.853	56.64	-119.321	-99.9308	33.2222	-106.634	-74.9622	16.2043	-182.14	-88.511	78.7055	-199.085	-82.0875	111.935	-214.317	-69.4233	81.3281	
76	0.633333	-216.749	-26.5101	70.9061	-204.721	-12.7205	44.0412	-183.618	-12.9714	15.5602	-160.978	-18.8242	-1.23072	-188.669	-71.9914	10.0853	-161.907	-64.7038	-13.2593	-143.116	-38.1484	-1.57785	-169.602	-90.8185	11.7322	-140.637	-79.8058	-7.59121	-126.091	-45.1077	1.53282	-156	-97.2267	29.9989	-128.476	-90.4626	8.01073	-114.883	-60.1187	9.74421	-140.697	-99.4836	55.8321	-120.313	-99.1205	32.1666	-104.324	-72.4453	14.9856	-182.232	-87.242	83.6398	-194.498	-86.243	110.379	-212.946	-71.3009	77.4877	
77	0.641667	-214.848	-28.2777	75.1628	-202.197	-14.8602	45.1003	-182.938	-9.13582	14.9453	-159.956	-17.0631	1.71378	-186.178	-74.3934	11.5337	-161.199	-66.5004	-12.5785	-142.458	-37.0312	-1.4544	-171.68	-90.1686	12.4263	-144.78	-80.1618	-9.0187	-125.423	-46.9528	3.1807	-153.673	-98.1233	29.2244	-128.579	-89.4493	8.06262	-115.004	-56.6546	9.6375	-142.535	-98.7398	52.6341	-121.058	-96.1958	28.0428	-109.585	-72.528	16.7547	-181.61	-91.5148	82.1412	-194.708	-84.5621	111.592	-212.389	-72.0421	78.0681	
78	0.65	-217.157	-25.1327	74.0507	-200.219	-14.4354	43.6474	-179.172	-10.1937	17.7945	-155.198	-20.3756	7.45638	-185.727	-74.132	9.65017	-164.328	-68.0044	-13.222	-144.559	-40.2881	-4.44631	-169.859	-91.8255	17.0366	-141.77	-78.0636	-9.63785	-127.226	-45.6441	0.148168	-155.763	-97.3976	31.7123	-129.163	-90.848	8.09088	-116.624	-60.1785	8.20791	-143.28	-95.5419	55.9385	-121.397	-93.8857	26.4323	-108.383	-70.5291	15.7141	-182.756	-86.8851	83.3347	-194.876	-83.6825	109.74	-214.009	-67.924	78.1418	
79	0.658333	-213.576	-25.5345	73.666	-197.476	-11.2215	45.1201	-174.066	-7.52848	17.005	-148.442	-21.1352	9.26513	-186.633	-73.8231	12.2825	-161.004	-67.2717	-11.9025	-144.699	-40.9059	-7.1134	-169.944	-91.4196	15.078	-146.448	-80.9889	-9.71242	-125.856	-48.7556	0.992443	-154.798	-97.7989	26.7141	-130.288	-89.7392	8.54445	-118.075	-57.9301	7.96804	-143.174	-96.49	54.1321	-122.134	-95.9179	29.3785	-108.888	-70.6035	17.4946	-181.283	-87.7157	84.4713	-197.354	-84.7158	108.503	-214.628	-69.5172	77.9755	
80	0.666667	-211.145	-25.9604	74.8857	-195.484	-7.61211	47.1882	-168.454	-10.9581	21.9889	-143.83	-22.1979	16.3468	-186.496	-75.1283	8.96432	-161.526	-68.064	-12.3073	-145.229	-38.311	-7.37791	-170.419	-90.9418	14.8674	-143.209	-80.6751	-9.58259	-127.297	-48.1023	-0.364648	-156.247	-94.8767	29.2293	-134.798	-88.2805	7.42246	-119.381	-53.1046	9.30798	-139.474	-99.0003	53.4567	-124.151	-92.544	29.1232	-106.941	-69.1389	18.3154	-179.714	-91.9609	80.3309	-197.611	-82.0701	109.097	-214.569	-68.2347	79.2806	
